PathFileType	4	(X/Y/Z)	7_coords_data.trc
DataRate	CameraRate	NumFrames	NumMarkers	Units	OrigDataRate	OrigDataStartFrame	OrigNumFrames
30.0	30.0	4	21	m	30.0	1	62
Frame#	Time	THUMB_TIP	THUMB_IP	THUMB_MCP	THUMB_CMC	INDEX_TIP	INDEX_DIP	INDEX_PIP	INDEX_MCP	MIDDLE_TIP	MIDDLE_DIP	MIDDLE_PIP	MIDDLE_MCP	RING_TIP	RING_DIP	RING_PIP	RING_MCP	PINKY_TIP	PINKY_DIP	PINKY_PIP	PINKY_MCP	WRIST
X1	Y1	Z1	X2	Y2	Z2	X3	Y3	Z3	X4	Y4	Z4	X5	Y5	Z5	X6	Y6	Z6	X7	Y7	Z7	X8	Y8	Z8	X9	Y9	Z9	X10	Y10	Z10	X11	Y11	Z11	X12	Y12	Z12	X13	Y13	Z13	X14	Y14	Z14	X15	Y15	Z15	X16	Y16	Z16	X17	Y17	Z17	X18	Y18	Z18	X19	Y19	Z19	X20	Y20	Z20	X21	Y21	Z21
0	-2.749317978547796e-18	0.4724807431900606	-0.015633163681618933	-0.16903957590643526	0.47969038100618544	-0.01955363041718594	-0.14757679269605894	0.4752232656236164	-0.03191551534796333	-0.11936245802169465	0.4765111219275677	-0.03294279541277556	-0.07478470435679119	0.5053389377647212	-0.01768021976499312	-0.10499136790723729	0.5233786682039603	-0.016364167058721457	-0.10590576987240696	0.5360017572108173	0.0018374427785899927	-0.11779563346520117	0.4952843093323396	0.014008919708483836	-0.120548937227684	0.5033047558583483	-0.023292426657128273	-0.08533736543451265	0.52056076673314	-0.017795828936637337	-0.08546966127028233	0.5385236320701429	0.004036662463755336	-0.09254690212646965	0.5022970720741473	0.028979136331143573	-0.10039911641488486	0.5047321205332755	-0.006778522750467197	-0.07249797391282164	0.5222646994111739	-0.0033555072431602495	-0.0700707032795771	0.53818661697261	0.015508769320897509	-0.0733588014961114	0.505602955152223	0.0388771193887083	-0.0785497581981951	0.5289520060902502	0.007018603553306635	-0.061770289099912334	0.5226796391737383	-0.00493383021072713	-0.051244286041722154	0.5341102749591133	0.01267628241336094	-0.051435382637810556	0.5067777246991106	0.03584497379385598	-0.05556174750289522	0.46228308100186094	-0.023011742144276925	-0.051989820119430985
1	0.03333333333333339	0.4723929030401157	-0.015803741101087065	-0.16925703754277066	0.47971161858539074	-0.019671524796826656	-0.14782163103740398	0.4755340274031961	-0.03182564324659132	-0.11947299550368662	0.47670879817989914	-0.03241476713495084	-0.07488417575404127	0.5051322243207734	-0.017993396644985005	-0.10553612581456362	0.5231449658093276	-0.01657790989896335	-0.10677610216045086	0.5356109827555753	0.001821231635655396	-0.118526840234501	0.49477230747791645	0.013644132674340503	-0.12098808109946879	0.5035744548134711	-0.022050900404982365	-0.0862356893877837	0.5209609859303035	-0.01698739562343954	-0.08597214612622972	0.5388613883026321	0.004646531223725492	-0.09377972924011602	0.501933224143146	0.028755970116105534	-0.10093469738152927	0.5039929903422191	-0.0071945925106131625	-0.07290515773098483	0.5215505823060055	-0.003937401256865147	-0.07043095693685086	0.5377221506122104	0.01470896167546254	-0.07374358533642533	0.5055542152092161	0.03854189870099445	-0.07939476916336108	0.52801896059044	0.007012947284403714	-0.06233354845796257	0.5219997420136795	-0.0049719176699040135	-0.0516971947710928	0.5335550373565155	0.012551289316088843	-0.05217088820136384	0.5064728445678386	0.036034408469776125	-0.05616856247156998	0.46228308100186083	-0.023011742144276925	-0.051989820119430985
2	0.06666666666666676	0.47224502955298825	-0.015922951525599083	-0.16940472703111165	0.4796736832192913	-0.019754296893199408	-0.14800061767378758	0.4757381876124386	-0.03175125460572992	-0.11955057584653894	0.47684632469309884	-0.03201688493255628	-0.07495694992601143	0.5049599754824579	-0.018240578741129054	-0.10594975581451826	0.5229491086768903	-0.01676091490226994	-0.10743356235074342	0.5352978465809499	0.0017804521475198731	-0.11908415088101987	0.49437412577820977	0.013349539209256966	-0.12132945580849053	0.5037631894848403	-0.021058394917229384	-0.08697857280122334	0.5212456369213461	-0.016367632744864635	-0.0863779215945123	0.5390883204002608	0.00511110671379722	-0.09472728968666133	0.5016493026645465	0.028575344621814436	-0.1013528018465516	0.5034388578682386	-0.007491761957342358	-0.07320608522868521	0.5210145808424733	-0.004354962944634999	-0.07070519460995728	0.5373763126496525	0.014119961491017907	-0.0740444877038412	0.505515922252608	0.038282074234992636	-0.08003019279976598	0.5268457258602517	0.007053410045257058	-0.06294692395732782	0.5214817480841427	-0.005000210852686204	-0.05204105555237848	0.5331345895615871	0.012451030587438017	-0.052732052440965904	0.5062445864162007	0.036169809680156595	-0.056634705409386976	0.46228308100186083	-0.023011742144276925	-0.051989820119430985
3	0.10000000000000014	0.47205555869900523	-0.016003353200896964	-0.16949750885515014	0.47959309562059793	-0.01981244546972205	-0.1481275216477791	0.47585360973702745	-0.03169942905156686	-0.11960497150492677	0.476933060772785	-0.03173672206194278	-0.07500986645187435	0.5048186401188102	-0.018425745425531104	-0.10624931727613729	0.522790168307371	-0.016912813189221	-0.1079031644928099	0.535058245287521	0.0017218696151785062	-0.11948991196518255	0.4940787030916509	0.013120298575375	-0.12158491379245262	0.5038891086808099	-0.02032151107704705	-0.08754767035757927	0.5214371764037764	-0.015926551278185763	-0.08668184846101323	0.5392310736315644	0.005438713141849516	-0.09541753662559993	0.5014386024042712	0.028435190846656466	-0.1016656605605527	0.5030540527169707	-0.007693612146548956	-0.07341876047459639	0.520642422203486	-0.004635673613953339	-0.07090912489613366	0.5371409568118579	0.013712060602062426	-0.07427646567407709	0.5054887386468199	0.038089831969716714	-0.08048792141160044	0.522872305459837	0.007047295793792596	-0.06430418575401309	0.52110864341404	-0.005022065527238384	-0.05229502202415193	0.5328342100951027	0.01237350695840489	-0.05314187673700377	0.5060841655648601	0.036260690983691224	-0.05697867331385664	0.4622830810018609	-0.023011742144276925	-0.051989820119430985
